# xmcd
#
# Track frame offsets: 
#        150
#        10817
#        21550
#        33617
#        48535
#        64507
#        79945
#        95190
#        116122
#        136327
#        152380
#        169960
#        186320
#        203985
#
# Disc length: 3113 seconds
#
# Revision: 1
# Processed by: cddbd v1.5.2PL0 Copyright (c) Steve Scherf et al.
# Submitted via: ExactAudioCopy v0.99pb4
#
DISCID=c70c270e
DTITLE=Сектор Газа - Наркологический университет миллионов
DYEAR=1997
DGENRE=Punk Rock
TTITLE0=Опять сегодня
TTITLE1=Кусок
TTITLE2=Новогодняя песня
TTITLE3=Песенка
TTITLE4=Похмел
TTITLE5=Самые лучшие тачки
TTITLE6=Марш наркоманов
TTITLE7=Свин
TTITLE8=Любовь раскумаренная
TTITLE9=Хорошо в деревне летом
TTITLE10=Пора домой
TTITLE11=Звездная болезнь
TTITLE12=Вальпургиева ночь
TTITLE13=Песенка (House remix)
EXTD=
EXTT0=
EXTT1=
EXTT2=
EXTT3=
EXTT4=
EXTT5=
EXTT6=
EXTT7=
EXTT8=
EXTT9=
EXTT10=
EXTT11=
EXTT12=
EXTT13=
PLAYORDER=
